<svg xmlns="http://www.w3.org/2000/svg" width="15.2" height="11.45" viewBox="0 0 15.2 11.45"><defs><style>.a{fill:#253e57;stroke:#253e57;stroke-width:0.2px;}</style></defs><path class="a" d="M4.124-1.128a.41.41,0,0,1-.143-.026.294.294,0,0,1-.121-.084L.11-4.988A.36.36,0,0,1,0-5.251a.36.36,0,0,1,.11-.264.36.36,0,0,1,.264-.11.36.36,0,0,1,.264.11L4.124-2.029,14.363-12.268a.36.36,0,0,1,.264-.11.36.36,0,0,1,.264.11A.364.364,0,0,1,15-12a.364.364,0,0,1-.11.267l-10.5,10.5a.294.294,0,0,1-.121.084A.41.41,0,0,1,4.124-1.128Z" transform="translate(0.1 12.478)"/></svg>